# xmcd
#
# Track frame offsets:
#	150
#	28567
#	48426
#	56553
#	76412
#	88263
#	109844
#	130508
#	157584
#	177443
#	183372
#	199178
#	209132
#	225911
#	244090
#	267988
#	284403
#
# Disc length: 3926 seconds
#
# Revision: 0
# Processed by: cddbd v1.5.2PL0 Copyright (c) Steve Scherf et al.
# Submitted via: EasyCDDAExtractor 15.2.5.1
#
DISCID=e80f5411
DTITLE=mr. chop - silver frequencies
DYEAR=1900
DGENRE=
TTITLE0=silver frequencies
TTITLE1=feathers on fire
TTITLE2=intermezzo 1
TTITLE3=psychic psych
TTITLE4=intermezzo 2
TTITLE5=8000 volts
TTITLE6=intermezzo 3
TTITLE7=outside my door
TTITLE8=ends and means dub
TTITLE9=intermezzo 4
TTITLE10=the zero point
TTITLE11=intermezzo 5
TTITLE12=hole in the sky
TTITLE13=intermezzo 6
TTITLE14=magic box
TTITLE15=flashbacks
TTITLE16=intermezzo 7
EXTD=
EXTT0=
EXTT1=
EXTT2=
EXTT3=
EXTT4=
EXTT5=
EXTT6=
EXTT7=
EXTT8=
EXTT9=
EXTT10=
EXTT11=
EXTT12=
EXTT13=
EXTT14=
EXTT15=
EXTT16=
PLAYORDER=
